<svg xmlns="http://www.w3.org/2000/svg" viewBox="0 0 100.18 30.71"><defs><style>.cls-1{fill:#00703c;}.cls-2{fill:#25c133;}.cls-3{fill:#919191;}.cls-4{fill:#fff;}</style></defs><title>BioLockJ_Logo_NoText_green</title><g id="Layer_2" data-name="Layer 2"><g id="Layer_1-2" data-name="Layer 1"><path class="cls-1" d="M12.28,3.81A2.54,2.54,0,0,0,9.73,1.27H2.54A2.54,2.54,0,0,0,0,3.81V26.9a2.54,2.54,0,0,0,2.54,2.54H9.73a2.54,2.54,0,0,0,0-5.09H5.09v-18H9.73A2.54,2.54,0,0,0,12.28,3.81Z"/><path class="cls-2" d="M100.18,26.9V3.81c0-1.41-.56-2.54-2-2.54H73.71a2.54,2.54,0,1,0,0,5.09h4.79v18H73.71a2.54,2.54,0,0,0,0,5.09H98.21C99.62,29.44,100.18,28.3,100.18,26.9Z"/><path class="cls-3" d="M43.54,9.39V21.32a1.06,1.06,0,0,1-2.12,0V9.39a1.06,1.06,0,0,1,2.12,0Z"/><path class="cls-3" d="M53.78,12.46v5.8a1.06,1.06,0,0,1-2.12,0v-5.8a1.06,1.06,0,0,1,2.12,0Z"/><path class="cls-3" d="M33.3,12.46v5.8a1.06,1.06,0,0,1-2.12,0v-5.8a1.06,1.06,0,0,1,2.12,0Z"/><circle class="cls-2" cx="18.12" cy="23.43" r="2.7"/><circle class="cls-2" cx="32.44" cy="7.28" r="3.49"/><circle class="cls-2" cx="42.48" cy="3.82" r="3.82"/><circle class="cls-2" cx="52.51" cy="7.28" r="3.49"/><circle class="cls-2" cx="66.84" cy="23.43" r="2.7"/><circle class="cls-1" cx="25.28" cy="15.36" r="2.97"/><circle class="cls-1" cx="59.68" cy="15.36" r="2.97"/><circle class="cls-1" cx="42.48" cy="26.9" r="3.82"/><circle class="cls-1" cx="32.44" cy="23.43" r="3.49"/><circle class="cls-1" cx="52.51" cy="23.43" r="3.49"/><circle class="cls-1" cx="66.84" cy="7.28" r="2.7"/><circle class="cls-1" cx="18.12" cy="7.28" r="2.7"/><path class="cls-4" d="M91.14,15.05h0a1.49,1.49,0,0,1,1.49,1.49v16.6a0,0,0,0,1,0,0h-3a0,0,0,0,1,0,0V16.55a1.49,1.49,0,0,1,1.49-1.49Z" transform="translate(67.04 115.24) rotate(-90)"/><path class="cls-4" d="M89.89,10.47h0A1.49,1.49,0,0,1,91.38,12V26.07a0,0,0,0,1,0,0h-3a0,0,0,0,1,0,0V12a1.49,1.49,0,0,1,1.49-1.49Z" transform="translate(71.62 108.16) rotate(-90)"/><path class="cls-4" d="M89.89,4.64h0a1.49,1.49,0,0,1,1.49,1.49V20.24a0,0,0,0,1,0,0h-3a0,0,0,0,1,0,0V6.13a1.49,1.49,0,0,1,1.49-1.49Z" transform="translate(77.45 102.33) rotate(-90)"/><path class="cls-4" d="M91.14-2.43h0A1.49,1.49,0,0,1,92.63-.94v16.6a0,0,0,0,1,0,0h-3a0,0,0,0,1,0,0V-.94a1.49,1.49,0,0,1,1.49-1.49Z" transform="translate(84.53 97.75) rotate(-90)"/></g></g></svg>