<svg xmlns="http://www.w3.org/2000/svg" viewBox="0 0 129.73 87.31"><defs><style>.cls-1{fill:#00703c;}.cls-2{fill:#fff;}.cls-3{fill:#25c133;}.cls-4{fill:#919191;}</style></defs><title>BioLockJ_Block_green</title><g id="Layer_2" data-name="Layer 2"><g id="Layer_1-2" data-name="Layer 1"><rect class="cls-1" width="129.73" height="87.31" rx="14.56" ry="14.56"/><rect class="cls-2" x="9.61" y="7" width="112.5" height="40.5" rx="7.13" ry="7.13"/><path class="cls-2" d="M27.31,58.71v1c0,2.81-.86,4.56-2.77,5.46v.08c2.3.9,3.2,2.93,3.2,5.81v2.22c0,4.21-2.22,6.47-6.51,6.47H14.48V52.43H21C25.4,52.43,27.31,54.5,27.31,58.71Zm-8.54-2.38v7.22h1.68c1.6,0,2.57-.7,2.57-2.89V59.14c0-2-.66-2.81-2.18-2.81Zm0,11.12v8.38h2.46c1.44,0,2.22-.66,2.22-2.69V70.76c0-2.54-.82-3.31-2.77-3.31Z"/><path class="cls-2" d="M30.18,54.71h3.93v25H30.18Z"/><path class="cls-2" d="M36.65,60.71c0-4,2.11-6.29,6-6.29s6,2.29,6,6.29v13c0,4-2.11,6.29-6,6.29s-6-2.29-6-6.29ZM40.58,74c0,1.79.79,2.47,2,2.47s2-.68,2-2.47V60.46c0-1.79-.79-2.47-2-2.47s-2,.68-2,2.47Z"/><path class="cls-2" d="M51.26,52.43h4.29v23.4h7.06v3.9H51.26Z"/><path class="cls-2" d="M64,60.71c0-4,2.11-6.29,6-6.29s6,2.29,6,6.29v13c0,4-2.11,6.29-6,6.29s-6-2.29-6-6.29ZM68,74c0,1.79.79,2.47,2,2.47s2-.68,2-2.47V60.46c0-1.79-.79-2.47-2-2.47s-2,.68-2,2.47Z"/><path class="cls-2" d="M89.91,70.4v3.33c0,4-2,6.29-5.86,6.29s-5.86-2.29-5.86-6.29v-13c0-4,2-6.29,5.86-6.29s5.86,2.29,5.86,6.29v2.43H86.19V60.46c0-1.79-.79-2.47-2-2.47s-2,.68-2,2.47V74c0,1.79.79,2.43,2,2.43s2-.64,2-2.43V70.4Z"/><path class="cls-2" d="M97.45,69.76,96.24,72v7.69H92.31v-25h3.93V65.54h.07l5.08-10.83h3.93L99.85,65.86l5.47,13.87h-4Z"/><path class="cls-2" d="M106.07,75.83c.47,0,1,0,1.48,0,1.37,0,2.46-.51,2.46-2.61V52.43h4.29V72.95c0,5.46-2.92,6.86-6.16,6.86a17.61,17.61,0,0,1-2.07-.08Z"/><path class="cls-1" d="M27.48,16.18a2.54,2.54,0,0,0-2.54-2.54H17.74a2.54,2.54,0,0,0-2.54,2.54V39.27a2.54,2.54,0,0,0,2.54,2.54h7.19a2.54,2.54,0,0,0,0-5.09H20.29v-18h4.65A2.54,2.54,0,0,0,27.48,16.18Z"/><path class="cls-3" d="M115.38,39.27V16.18c0-1.41-.56-2.54-2-2.54H88.91a2.54,2.54,0,1,0,0,5.09h4.79v18H88.91a2.54,2.54,0,0,0,0,5.09h24.51C114.82,41.81,115.38,40.67,115.38,39.27Z"/><path class="cls-4" d="M58.74,21.76V33.69a1.06,1.06,0,0,1-2.12,0V21.76a1.06,1.06,0,0,1,2.12,0Z"/><path class="cls-4" d="M69,24.83v5.8a1.06,1.06,0,0,1-2.12,0v-5.8a1.06,1.06,0,0,1,2.12,0Z"/><path class="cls-4" d="M48.5,24.83v5.8a1.06,1.06,0,0,1-2.12,0v-5.8a1.06,1.06,0,0,1,2.12,0Z"/><circle class="cls-3" cx="33.31" cy="35.8" r="2.7"/><circle class="cls-3" cx="47.64" cy="19.65" r="3.49"/><circle class="cls-3" cx="57.68" cy="16.18" r="3.82"/><circle class="cls-3" cx="67.71" cy="19.65" r="3.49"/><circle class="cls-3" cx="82.04" cy="35.8" r="2.7"/><circle class="cls-1" cx="40.48" cy="27.72" r="2.97"/><circle class="cls-1" cx="74.88" cy="27.72" r="2.97"/><circle class="cls-1" cx="57.68" cy="39.26" r="3.82"/><circle class="cls-1" cx="47.64" cy="35.8" r="3.49"/><circle class="cls-1" cx="67.71" cy="35.8" r="3.49"/><circle class="cls-1" cx="82.04" cy="19.65" r="2.7"/><circle class="cls-1" cx="33.31" cy="19.65" r="2.7"/><path class="cls-2" d="M106.34,27.48h0A1.49,1.49,0,0,1,107.83,29v16.6a0,0,0,0,1,0,0h-3a0,0,0,0,1,0,0V29a1.49,1.49,0,0,1,1.49-1.49Z" transform="translate(69.81 142.86) rotate(-90)"/><path class="cls-2" d="M105.09,22.9h0a1.49,1.49,0,0,1,1.49,1.49V38.49a0,0,0,0,1,0,0h-3a0,0,0,0,1,0,0V24.39A1.49,1.49,0,0,1,105.09,22.9Z" transform="translate(74.4 135.79) rotate(-90)"/><path class="cls-2" d="M105.09,17.07h0a1.49,1.49,0,0,1,1.49,1.49V32.66a0,0,0,0,1,0,0h-3a0,0,0,0,1,0,0V18.56A1.49,1.49,0,0,1,105.09,17.07Z" transform="translate(80.23 129.96) rotate(-90)"/><path class="cls-2" d="M106.34,10h0a1.49,1.49,0,0,1,1.49,1.49v16.6a0,0,0,0,1,0,0h-3a0,0,0,0,1,0,0V11.48A1.49,1.49,0,0,1,106.34,10Z" transform="translate(87.3 125.38) rotate(-90)"/></g></g></svg>