<svg xmlns="http://www.w3.org/2000/svg" viewBox="0 0 100.43 60.65"><defs><style>.cls-1{fill:#333;}.cls-2{fill:#00703c;}.cls-3{fill:#25c133;}.cls-4{fill:#919191;}</style></defs><title>BioLockJ_NoBG_green</title><g id="Layer_2" data-name="Layer 2"><g id="Layer_4" data-name="Layer 4"><path class="cls-1" d="M13.44,39.34v1c0,2.81-.86,4.56-2.77,5.46v.08c2.3.9,3.2,2.93,3.2,5.81v2.22c0,4.21-2.22,6.47-6.51,6.47H.61V33.07H7.08C11.53,33.07,13.44,35.13,13.44,39.34ZM4.9,37v7.22H6.58c1.6,0,2.57-.7,2.57-2.89V39.77c0-2-.66-2.81-2.18-2.81Zm0,11.12v8.38H7.36c1.44,0,2.22-.66,2.22-2.69V51.4c0-2.54-.82-3.31-2.77-3.31Z"/><path class="cls-2" d="M16.31,35.34h3.93v25H16.31Z"/><path class="cls-3" d="M22.78,41.35c0-4,2.11-6.29,6-6.29s6,2.29,6,6.29v13c0,4-2.11,6.29-6,6.29s-6-2.29-6-6.29Zm3.93,13.26c0,1.79.79,2.47,2,2.47s2-.68,2-2.47V41.1c0-1.79-.79-2.47-2-2.47s-2,.68-2,2.47Z"/><path class="cls-1" d="M37.39,33.07h4.29v23.4h7.06v3.9H37.39Z"/><path class="cls-1" d="M50.16,41.35c0-4,2.11-6.29,6-6.29s6,2.29,6,6.29v13c0,4-2.11,6.29-6,6.29s-6-2.29-6-6.29Zm3.93,13.26c0,1.79.79,2.47,2,2.47s2-.68,2-2.47V41.1c0-1.79-.79-2.47-2-2.47s-2,.68-2,2.47Z"/><path class="cls-1" d="M76,51v3.33c0,4-2,6.29-5.86,6.29s-5.86-2.29-5.86-6.29v-13c0-4,2-6.29,5.86-6.29S76,37.34,76,41.35v2.43H72.33V41.1c0-1.79-.79-2.47-2-2.47s-2,.68-2,2.47V54.61c0,1.79.79,2.43,2,2.43s2-.64,2-2.43V51Z"/><path class="cls-1" d="M83.59,50.39l-1.22,2.29v7.69H78.44v-25h3.93V46.17h.07l5.08-10.83h3.93L86,46.5l5.47,13.87h-4Z"/><path class="cls-1" d="M92.2,56.47c.47,0,1,0,1.48,0,1.37,0,2.46-.51,2.46-2.61V33.07h4.29V53.58c0,5.46-2.92,6.86-6.16,6.86a17.61,17.61,0,0,1-2.07-.08Z"/><path class="cls-2" d="M12.28,3.81A2.54,2.54,0,0,0,9.73,1.27H2.54A2.54,2.54,0,0,0,0,3.81V26.9a2.54,2.54,0,0,0,2.54,2.54H9.73a2.54,2.54,0,0,0,0-5.09H5.09v-18H9.73A2.54,2.54,0,0,0,12.28,3.81Z"/><path class="cls-4" d="M43.54,9.39V21.32a1.06,1.06,0,0,1-2.12,0V9.39a1.06,1.06,0,0,1,2.12,0Z"/><path class="cls-4" d="M53.78,12.46v5.8a1.06,1.06,0,0,1-2.12,0v-5.8a1.06,1.06,0,0,1,2.12,0Z"/><path class="cls-4" d="M33.3,12.46v5.8a1.06,1.06,0,0,1-2.12,0v-5.8a1.06,1.06,0,0,1,2.12,0Z"/><circle class="cls-3" cx="18.12" cy="23.43" r="2.7"/><circle class="cls-3" cx="32.44" cy="7.28" r="3.49"/><circle class="cls-3" cx="42.48" cy="3.82" r="3.82"/><circle class="cls-3" cx="52.51" cy="7.28" r="3.49"/><circle class="cls-3" cx="66.84" cy="23.43" r="2.7"/><circle class="cls-2" cx="25.28" cy="15.36" r="2.97"/><circle class="cls-2" cx="59.68" cy="15.36" r="2.97"/><circle class="cls-2" cx="42.48" cy="26.9" r="3.82"/><circle class="cls-2" cx="32.44" cy="23.43" r="3.49"/><circle class="cls-2" cx="52.51" cy="23.43" r="3.49"/><circle class="cls-2" cx="66.84" cy="7.28" r="2.7"/><circle class="cls-2" cx="18.12" cy="7.28" r="2.7"/><path class="cls-3" d="M83.58,5.18h16.6V3.81c0-1.41-.56-2.54-2-2.54H73.71a2.54,2.54,0,1,0,0,5.09h4.79v18H73.71a2.54,2.54,0,0,0,0,5.09H98.21c1.41,0,2-1.14,2-2.54V25.65H83.59a1.49,1.49,0,0,1-1.49-1.49h0a1.49,1.49,0,0,1,1.49-1.49h16.6V8.16H83.58a1.49,1.49,0,0,1-1.49-1.49h0A1.49,1.49,0,0,1,83.58,5.18ZM97.69,19.82H83.58a1.49,1.49,0,0,1-1.49-1.49h0a1.49,1.49,0,0,1,1.49-1.49H97.69ZM83.58,11H97.69v3H83.58a1.49,1.49,0,0,1-1.49-1.49h0A1.49,1.49,0,0,1,83.58,11Z"/></g></g></svg>